<?xml version="1.0" encoding="UTF-8"?>
<svg id="Calque_1" data-name="Calque 1" xmlns="http://www.w3.org/2000/svg" viewBox="0 0 84 84">
  <path d="M19.01,0C8.53,0,0,8.53,0,19.01s8,18.42,18.01,18.95v10.76c0,.52.22,1.04.59,1.41l33.33,33.33c.74.73,2.07.73,2.81,0l28.7-28.7c.73-.74.73-2.07,0-2.81L50.12,18.57c-.37-.36-.89-.57-1.41-.56h-10.76C37.43,8,29.15,0,19.01,0ZM19.01,4c7.97,0,14.43,6.17,14.95,14.01,0,0-14.07,0-14.13,0-.98.09-1.82,1.01-1.81,2v13.95c-7.84-.51-14.01-6.97-14.01-14.95s6.7-15.01,15.01-15.01h0ZM22.01,22.01h11.69c-.16.8-.4,1.57-.69,2.31-.64-.19-1.3-.31-2-.31-3.84,0-7,3.16-7,7s3.16,7,7,7,7-3.16,7-7c0-1.68-.59-3.23-1.59-4.44.63-1.45,1.09-2.96,1.34-4.56h10.1l31.36,31.33-25.89,25.86-31.33-31.3v-25.89ZM31.02,28.02c1.68,0,3,1.32,3,3s-1.32,3-3,3-3-1.32-3-3,1.32-3,3-3Z"/>
</svg>