<?xml version="1.0" encoding="UTF-8"?>
<svg id="Calque_2" data-name="Calque 2" xmlns="http://www.w3.org/2000/svg" viewBox="0 0 227.4 125.94">
  <g id="Calque_4" data-name="Calque 4">
    <path id="R" d="M221.73,15.86h-.49s-26.3,0-26.3,0h0v109.62h10.1v-49.85h9.43c1.57,0,2.83,1.27,2.83,2.83v47.02h10.1v-52.47h-3.72v-4.67h3.72V21.53c0-3.13-2.54-5.67-5.67-5.67ZM217.3,51.14v11.55c0,1.57-1.27,2.83-2.83,2.83h-9.43V25.95h9.43c1.57,0,2.83,1.27,2.83,2.83v22.35Z"/>
    <path id="A" d="M186.51,15.85h-23.54s-5.31,13.57-5.31,13.57v95.87h10.1v-49.74h9.36v-10.1h-9.36V27.75c0-1,.81-1.8,1.8-1.8h8.66c1,0,1.8.81,1.8,1.8v97.54h10.1V19.46c0-1.99-1.61-3.61-3.61-3.61Z"/>
    <path id="P" d="M158.27,15.85h-44.47v10.1h15.34v40h-22.36v-25.07h-10.1v84.27h10.1v-49.1h25.32s1.47,0,1.47,0c3.13,0,5.67-2.54,5.67-5.67V25.95h15.07l3.96-10.1Z"/>
    <polygon id="S" points="69.74 26.43 109.21 26.43 109.21 16.33 59.64 16.33 59.64 20.8 59.64 26.43 59.64 69.47 59.67 69.47 59.65 69.52 82.02 82.43 82.02 115.84 44.85 115.84 44.85 125.94 86.8 125.94 86.8 125.93 92.12 125.93 92.12 76.6 92.11 76.6 69.74 63.68 69.74 26.43"/>
    <path id="A-2" data-name="A" d="M51.21,15.85h-25.25c-1.99,0-3.61,1.61-3.61,3.61v66.16l10.1,5.97v-16.04h9.36v-10.1h-9.36V27.75c0-1,.81-1.8,1.8-1.8h8.66c1,0,1.8.81,1.8,1.8v80.86c0,1,.81,1.8,1.8,1.8h6.49c1,0,1.8-.81,1.8-1.8V19.46c0-1.99-1.61-3.61-3.61-3.61Z"/>
    <path id="G" d="M11.9,11.27h20.56V0H3.61C1.61,0,0,1.69,0,3.77v117.8c0,2.08,1.61,3.77,3.61,3.77h25.25c1.99,0,3.61-1.69,3.61-3.77v-25.76l-10.1-5.32v23.57h-10.46c-1,0-1.8-.84-1.8-1.88V13.15c0-1.04.81-1.88,1.8-1.88Z"/>
  </g>
</svg>