<?xml version="1.0" encoding="UTF-8"?>
<svg id="Calque_2" data-name="Calque 2" xmlns="http://www.w3.org/2000/svg" viewBox="0 0 227.4 125.47">
  <g id="Calque_3" data-name="Calque 3">
    <path id="R" d="M221.73,15.86h-.49s0,0,0,0h-26.3v106.79c0,1.57,1.27,2.83,2.83,2.83h4.43c1.57,0,2.83-1.27,2.83-2.83v-47.02h9.43c1.57,0,2.83,1.27,2.83,2.83v44.18c0,1.57,1.27,2.83,2.83,2.83h4.43c1.57,0,2.83-1.27,2.83-2.83v-49.64h-3.72v-4.67h3.72V21.53c0-3.13-2.54-5.67-5.67-5.67ZM217.3,51.14v11.55c0,1.57-1.27,2.83-2.83,2.83h-9.43V25.95h9.43c1.57,0,2.83,1.27,2.83,2.83v22.35Z"/>
    <path id="A" d="M186.51,15.85h-23.54s-5.31,13.57-5.31,13.57v93.04c0,1.57,1.27,2.83,2.83,2.83h4.43c1.57,0,2.83-1.27,2.83-2.83v-46.9h9.36v-10.1h-9.36V27.75c0-1,.81-1.8,1.8-1.8h8.66c1,0,1.8.81,1.8,1.8v94.7c0,1.57,1.27,2.83,2.83,2.83h4.43c1.57,0,2.83-1.27,2.83-2.83V19.46c0-1.99-1.61-3.61-3.61-3.61Z"/>
    <path id="P" d="M158.27,15.85h-44.47v10.1h15.34v40h-22.36v-25.07h-10.1v81.44c0,1.57,1.27,2.83,2.83,2.83h4.43c1.57,0,2.83-1.27,2.83-2.83v-46.27h25.32s1.47,0,1.47,0c3.13,0,5.67-2.54,5.67-5.67V25.95h15.07l3.96-10.1Z"/>
    <path id="S" d="M69.61,25.95h39.47v-10.1h-45.35c-2.33,0-4.22,1.89-4.22,4.22h0v50.13c0,3.13,2.54,5.67,5.67,5.67h16.71v39.19h-34.06c-1.57,0-2.83,1.27-2.83,2.83v4.43c0,1.57,1.27,2.83,2.83,2.83h34.06v.05h4.43c3.13,0,5.67-2.54,5.67-5.67v-48.1c0-3.13-2.54-5.67-5.67-5.67h-4.43s-12.28,0-12.28,0V25.95Z"/>
    <path id="A-2" data-name="A" d="M51.21,15.85h-25.25c-1.99,0-3.61,1.61-3.61,3.61v66.16l10.1,5.97v-16.04h9.36v-10.1h-9.36V27.75c0-1,.81-1.8,1.8-1.8h8.66c1,0,1.8.81,1.8,1.8v79.83c0,1.57,1.27,2.83,2.83,2.83h4.43c1.57,0,2.83-1.27,2.83-2.83V19.46c0-1.99-1.61-3.61-3.61-3.61Z"/>
    <path id="G" d="M11.9,11.27h20.56V0H3.61C1.61,0,0,1.69,0,3.77v117.8c0,2.08,1.61,3.77,3.61,3.77h25.25c1.99,0,3.61-1.69,3.61-3.77v-25.76l-10.1-5.32v23.57h-10.46c-1,0-1.8-.84-1.8-1.88V13.15c0-1.04.81-1.88,1.8-1.88Z"/>
  </g>
</svg>